<svg xmlns="http://www.w3.org/2000/svg" xmlns:svg="http://www.w3.org/2000/svg" id="svg2" width="217.188" height="115.625" version="1.1" xml:space="preserve"><metadata id="metadata8"/><defs id="defs6"><clipPath id="clipPath20" clipPathUnits="userSpaceOnUse"><path id="path22" d="m 0,0 0,925 1737.5,0 0,-925 L 0,0 z" clip-rule="evenodd"/></clipPath></defs><g id="g12" transform="matrix(1.25,0,0,-1.25,0,115.625)"><g id="g14" transform="scale(0.1,0.1)"><g id="g16"><g id="g18" clip-path="url(#clipPath20)"><path d="m 7.92969,754.996 0,-571.871" style="fill:none;stroke:#000;stroke-opacity:1;stroke-width:5.21232;stroke-linecap:butt;stroke-linejoin:miter;stroke-miterlimit:10;stroke-dasharray:none" id="path24"/><path d="m 868.715,754.996 0,-571.871" style="fill:none;stroke:#000;stroke-opacity:1;stroke-width:5.21232;stroke-linecap:butt;stroke-linejoin:miter;stroke-miterlimit:10;stroke-dasharray:none" id="path26"/><path d="m 1720.94,754.996 0,-571.871" style="fill:none;stroke:#000;stroke-opacity:1;stroke-width:17.871;stroke-linecap:butt;stroke-linejoin:miter;stroke-miterlimit:10;stroke-dasharray:none" id="path28"/><path d="m 1691.52,754.996 0,-571.871" style="fill:none;stroke:#000;stroke-opacity:1;stroke-width:5.21232;stroke-linecap:butt;stroke-linejoin:miter;stroke-miterlimit:10;stroke-dasharray:none" id="path30"/><path d="m -2705.11,754.996 4434.99,0" style="fill:none;stroke:#000;stroke-opacity:1;stroke-width:5.21232;stroke-linecap:butt;stroke-linejoin:miter;stroke-miterlimit:10;stroke-dasharray:none" id="path32"/><path d="m -2705.11,719.254 4434.99,0" style="fill:none;stroke:#000;stroke-opacity:1;stroke-width:5.21232;stroke-linecap:butt;stroke-linejoin:miter;stroke-miterlimit:10;stroke-dasharray:none" id="path34"/><path d="m -2705.11,683.512 4434.99,0" style="fill:none;stroke:#000;stroke-opacity:1;stroke-width:5.21232;stroke-linecap:butt;stroke-linejoin:miter;stroke-miterlimit:10;stroke-dasharray:none" id="path36"/><path d="m -2705.11,647.77 4434.99,0" style="fill:none;stroke:#000;stroke-opacity:1;stroke-width:5.21232;stroke-linecap:butt;stroke-linejoin:miter;stroke-miterlimit:10;stroke-dasharray:none" id="path38"/><path d="m -2705.11,612.027 4434.99,0" style="fill:none;stroke:#000;stroke-opacity:1;stroke-width:5.21232;stroke-linecap:butt;stroke-linejoin:miter;stroke-miterlimit:10;stroke-dasharray:none" id="path40"/><path d="m -2705.11,326.094 4434.99,0" style="fill:none;stroke:#000;stroke-opacity:1;stroke-width:5.21232;stroke-linecap:butt;stroke-linejoin:miter;stroke-miterlimit:10;stroke-dasharray:none" id="path42"/><path d="m -2705.11,290.352 4434.99,0" style="fill:none;stroke:#000;stroke-opacity:1;stroke-width:5.21232;stroke-linecap:butt;stroke-linejoin:miter;stroke-miterlimit:10;stroke-dasharray:none" id="path44"/><path d="m -2705.11,254.609 4434.99,0" style="fill:none;stroke:#000;stroke-opacity:1;stroke-width:5.21232;stroke-linecap:butt;stroke-linejoin:miter;stroke-miterlimit:10;stroke-dasharray:none" id="path46"/><path d="m -2705.11,218.867 4434.99,0" style="fill:none;stroke:#000;stroke-opacity:1;stroke-width:5.21232;stroke-linecap:butt;stroke-linejoin:miter;stroke-miterlimit:10;stroke-dasharray:none" id="path48"/><path d="m -2705.11,183.125 4434.99,0" style="fill:none;stroke:#000;stroke-opacity:1;stroke-width:5.21232;stroke-linecap:butt;stroke-linejoin:miter;stroke-miterlimit:10;stroke-dasharray:none" id="path50"/><g id="g52" transform="scale(10,10)"><text id="text54" transform="matrix(1,0,0,-1,-15.5516,68.3512)"><tspan style="fill:#000;fill-opacity:1;fill-rule:nonzero;stroke:none;font-family:Maestro;font-variant:normal;font-weight:400;font-size:14.3;writing-mode:lr;-inkscape-font-specification:Maestro" id="tspan56" x="0" y="0">œ</tspan></text></g><g id="g58" transform="scale(10,10)"><text id="text60" transform="matrix(1,0,0,-1,-7.36094,66.5641)"><tspan style="fill:#000;fill-opacity:1;fill-rule:nonzero;stroke:none;font-family:Maestro;font-variant:normal;font-weight:400;font-size:14.3;writing-mode:lr;-inkscape-font-specification:Maestro" id="tspan62" x="0" y="0">œ</tspan></text></g><g id="g64" transform="scale(10,10)"><text id="text66" transform="matrix(1,0,0,-1,-15.5516,29.0352)"><tspan style="fill:#000;fill-opacity:1;fill-rule:nonzero;stroke:none;font-family:Maestro;font-variant:normal;font-weight:400;font-size:14.3;writing-mode:lr;-inkscape-font-specification:Maestro" id="tspan68" x="0 -4.617" y="0">œ#</tspan></text></g><path d="m 50,790.738 64.039,0" style="fill:none;stroke:#000;stroke-opacity:1;stroke-width:5.21232;stroke-linecap:butt;stroke-linejoin:miter;stroke-miterlimit:10;stroke-dasharray:none" id="path70"/><g id="g72" transform="scale(10,10)"><text id="text74" transform="matrix(1,0,0,-1,5.89336,79.0738)"><tspan style="fill:#000;fill-opacity:1;fill-rule:nonzero;stroke:none;font-family:Maestro;font-variant:normal;font-weight:400;font-size:14.3;writing-mode:lr;-inkscape-font-specification:Maestro" id="tspan76" x="0" y="0">œ</tspan></text></g><path d="m 101.938,796.695 0,110.203" style="fill:none;stroke:#000;stroke-opacity:1;stroke-width:5.21232;stroke-linecap:butt;stroke-linejoin:miter;stroke-miterlimit:10;stroke-dasharray:none" id="path78"/><g id="g80" transform="scale(10,10)"><text id="text82" transform="matrix(1,0,0,-1,15.8715,71.9254)"><tspan style="fill:#000;fill-opacity:1;fill-rule:nonzero;stroke:none;font-family:Maestro;font-variant:normal;font-weight:400;font-size:14.3;writing-mode:lr;-inkscape-font-specification:Maestro" id="tspan84" x="0" y="0">œ</tspan></text></g><path d="m 201.719,725.211 0,181.687" style="fill:none;stroke:#000;stroke-opacity:1;stroke-width:5.21232;stroke-linecap:butt;stroke-linejoin:miter;stroke-miterlimit:10;stroke-dasharray:none" id="path86"/><g id="g88" transform="scale(10,10)"><text id="text90" transform="matrix(1,0,0,-1,25.9984,77.2867)"><tspan style="fill:#000;fill-opacity:1;fill-rule:nonzero;stroke:none;font-family:Maestro;font-variant:normal;font-weight:400;font-size:14.3;writing-mode:lr;-inkscape-font-specification:Maestro" id="tspan92" x="0" y="0">œ</tspan></text></g><path d="m 302.984,778.824 0,128.074" style="fill:none;stroke:#000;stroke-opacity:1;stroke-width:5.21232;stroke-linecap:butt;stroke-linejoin:miter;stroke-miterlimit:10;stroke-dasharray:none" id="path94"/><g id="g96" transform="scale(10,10)"><text id="text98" transform="matrix(1,0,0,-1,35.9766,75.4996)"><tspan style="fill:#000;fill-opacity:1;fill-rule:nonzero;stroke:none;font-family:Maestro;font-variant:normal;font-weight:400;font-size:14.3;writing-mode:lr;-inkscape-font-specification:Maestro" id="tspan100" x="0" y="0">œ</tspan></text></g><path d="m 402.766,760.953 0,145.945" style="fill:none;stroke:#000;stroke-opacity:1;stroke-width:5.21232;stroke-linecap:butt;stroke-linejoin:miter;stroke-miterlimit:10;stroke-dasharray:none" id="path102"/><path d="m 99.332,897.965 306.039,0 0,17.8711 -306.039,0 0,-17.8711 z" style="fill:#000;fill-opacity:1;fill-rule:nonzero;stroke:none" id="path104"/><g id="g106" transform="scale(10,10)"><text id="text108" transform="matrix(1,0,0,-1,46.9969,73.7125)"><tspan style="fill:#000;fill-opacity:1;fill-rule:nonzero;stroke:none;font-family:Maestro;font-variant:normal;font-weight:400;font-size:14.3;writing-mode:lr;-inkscape-font-specification:Maestro" id="tspan110" x="0" y="0">œ</tspan></text></g><path d="m 512.969,743.082 0,110.203" style="fill:none;stroke:#000;stroke-opacity:1;stroke-width:5.21232;stroke-linecap:butt;stroke-linejoin:miter;stroke-miterlimit:10;stroke-dasharray:none" id="path112"/><g id="g114" transform="scale(10,10)"><text id="text116" transform="matrix(1,0,0,-1,56.8258,71.9254)"><tspan style="fill:#000;fill-opacity:1;fill-rule:nonzero;stroke:none;font-family:Maestro;font-variant:normal;font-weight:400;font-size:14.3;writing-mode:lr;-inkscape-font-specification:Maestro" id="tspan118" x="0" y="0">œ</tspan></text></g><path d="m 611.262,725.211 0,122.148" style="fill:none;stroke:#000;stroke-opacity:1;stroke-width:5.21232;stroke-linecap:butt;stroke-linejoin:miter;stroke-miterlimit:10;stroke-dasharray:none" id="path120"/><g id="g122" transform="scale(10,10)"><text id="text124" transform="matrix(1,0,0,-1,66.8039,70.1383)"><tspan style="fill:#000;fill-opacity:1;fill-rule:nonzero;stroke:none;font-family:Maestro;font-variant:normal;font-weight:400;font-size:14.3;writing-mode:lr;-inkscape-font-specification:Maestro" id="tspan126" x="0" y="0">œ</tspan></text></g><path d="m 711.039,707.34 0,134.004" style="fill:none;stroke:#000;stroke-opacity:1;stroke-width:5.21232;stroke-linecap:butt;stroke-linejoin:miter;stroke-miterlimit:10;stroke-dasharray:none" id="path128"/><g id="g130" transform="scale(10,10)"><text id="text132" transform="matrix(1,0,0,-1,76.6328,68.3512)"><tspan style="fill:#000;fill-opacity:1;fill-rule:nonzero;stroke:none;font-family:Maestro;font-variant:normal;font-weight:400;font-size:14.3;writing-mode:lr;-inkscape-font-specification:Maestro" id="tspan134" x="0" y="0">œ</tspan></text></g><path d="m 809.332,689.469 0,145.945" style="fill:none;stroke:#000;stroke-opacity:1;stroke-width:5.21232;stroke-linecap:butt;stroke-linejoin:miter;stroke-miterlimit:10;stroke-dasharray:none" id="path136"/><path d="m 510.363,862.223 0,-17.871 301.575,-17.872 0,17.872" style="fill:#000;fill-opacity:1;fill-rule:nonzero;stroke:none" id="path138"/><g id="g140" transform="scale(10,10)"><text id="text142" transform="matrix(1,0,0,-1,11.7016,66.2664)"><tspan style="fill:#000;fill-opacity:1;fill-rule:nonzero;stroke:none;font-family:Maestro;font-variant:normal;font-weight:400;font-size:14.3;writing-mode:lr;-inkscape-font-specification:Maestro" id="tspan144" x="0" y="0">.</tspan></text></g><path d="m 61.543,677.555 0,-119.141" style="fill:none;stroke:#000;stroke-opacity:1;stroke-width:5.21232;stroke-linecap:butt;stroke-linejoin:miter;stroke-miterlimit:10;stroke-dasharray:none" id="path146"/><g id="g148" transform="scale(10,10)"><text id="text150" transform="matrix(1,0,0,-1,5.89336,68.3512)"><tspan style="fill:#000;fill-opacity:1;fill-rule:nonzero;stroke:none;font-family:Maestro;font-variant:normal;font-weight:400;font-size:14.3;writing-mode:lr;-inkscape-font-specification:Maestro" id="tspan152" x="0" y="0">œ</tspan><tspan style="fill:#000;fill-opacity:1;fill-rule:nonzero;stroke:none;font-family:Maestro;font-variant:normal;font-weight:400;font-size:14.3;writing-mode:lr;-inkscape-font-specification:Maestro" id="tspan154" x="30.083" y="12.51">J</tspan></text></g><path d="m 362.371,677.555 0,-154.883" style="fill:none;stroke:#000;stroke-opacity:1;stroke-width:5.21232;stroke-linecap:butt;stroke-linejoin:miter;stroke-miterlimit:10;stroke-dasharray:none" id="path156"/><g id="g158" transform="scale(10,10)"><text id="text160" transform="matrix(1,0,0,-1,35.9766,68.3512)"><tspan style="fill:#000;fill-opacity:1;fill-rule:nonzero;stroke:none;font-family:Maestro;font-variant:normal;font-weight:400;font-size:14.3;writing-mode:lr;-inkscape-font-specification:Maestro" id="tspan162" x="0" y="0">œ</tspan><tspan style="fill:#000;fill-opacity:1;fill-rule:nonzero;stroke:none;font-family:Maestro;font-variant:normal;font-weight:400;font-size:14.3;writing-mode:lr;-inkscape-font-specification:Maestro" id="tspan164" x="0" y="3.574">œ</tspan><tspan style="fill:#000;fill-opacity:1;fill-rule:nonzero;stroke:none;font-family:Maestro;font-variant:normal;font-weight:400;font-size:14.3;writing-mode:lr;-inkscape-font-specification:Maestro" id="tspan166" x="-4.021" y="0">n</tspan><tspan style="fill:#000;fill-opacity:1;fill-rule:nonzero;stroke:none;font-family:Maestro;font-variant:normal;font-weight:400;font-size:14.3;writing-mode:lr;-inkscape-font-specification:Maestro" id="tspan168" x="11.02" y="-1.787">œ</tspan><tspan style="fill:#000;fill-opacity:1;fill-rule:nonzero;stroke:none;font-family:Maestro;font-variant:normal;font-weight:400;font-size:14.3;writing-mode:lr;-inkscape-font-specification:Maestro" id="tspan170" x="11.02" y="1.787">œ</tspan></text></g><path d="m 472.574,695.426 0,-199.559" style="fill:none;stroke:#000;stroke-opacity:1;stroke-width:5.21232;stroke-linecap:butt;stroke-linejoin:miter;stroke-miterlimit:10;stroke-dasharray:none" id="path172"/><g id="g174" transform="scale(10,10)"><text id="text176" transform="matrix(1,0,0,-1,56.8258,57.6285)"><tspan style="fill:#000;fill-opacity:1;fill-rule:nonzero;stroke:none;font-family:Maestro;font-variant:normal;font-weight:400;font-size:14.3;writing-mode:lr;-inkscape-font-specification:Maestro" id="tspan178" x="0" y="0">‰</tspan><tspan style="fill:#000;fill-opacity:1;fill-rule:nonzero;stroke:none;font-family:Maestro;font-variant:normal;font-weight:400;font-size:14.3;writing-mode:lr;-inkscape-font-specification:Maestro" id="tspan180" x="9.978" y="-7.148">œ</tspan><tspan style="fill:#000;fill-opacity:1;fill-rule:nonzero;stroke:none;font-family:Maestro;font-variant:normal;font-weight:400;font-size:14.3;writing-mode:lr;-inkscape-font-specification:Maestro" id="tspan182" x="9.978" y="-1.787">œ</tspan></text></g><path d="m 670.645,641.812 0,-163.816" style="fill:none;stroke:#000;stroke-opacity:1;stroke-width:5.21232;stroke-linecap:butt;stroke-linejoin:miter;stroke-miterlimit:10;stroke-dasharray:none" id="path184"/><path d="m 469.969,504.801 0,-17.871 203.281,-17.871 0,17.871" style="fill:#000;fill-opacity:1;fill-rule:nonzero;stroke:none" id="path186"/><g id="g188" transform="scale(10,10)"><text id="text190" transform="matrix(1,0,0,-1,76.6328,57.6285)"><tspan style="fill:#000;fill-opacity:1;fill-rule:nonzero;stroke:none;font-family:Maestro;font-variant:normal;font-weight:400;font-size:14.3;writing-mode:lr;-inkscape-font-specification:Maestro" id="tspan192" x="0" y="0">‰</tspan><tspan style="fill:#000;fill-opacity:1;fill-rule:nonzero;stroke:none;font-family:Maestro;font-variant:normal;font-weight:400;font-size:14.3;writing-mode:lr;-inkscape-font-specification:Maestro" id="tspan194" x="-70.74" y="21.445">‰</tspan></text></g><path d="m 149.781,361.832 64.035,0" style="fill:none;stroke:#000;stroke-opacity:1;stroke-width:5.21232;stroke-linecap:butt;stroke-linejoin:miter;stroke-miterlimit:10;stroke-dasharray:none" id="path196"/><g id="g198" transform="scale(10,10)"><text id="text200" transform="matrix(1,0,0,-1,15.8715,37.9703)"><tspan style="fill:#000;fill-opacity:1;fill-rule:nonzero;stroke:none;font-family:Maestro;font-variant:normal;font-weight:400;font-size:14.3;writing-mode:lr;-inkscape-font-specification:Maestro" id="tspan202" x="0" y="0">œ</tspan></text></g><path d="m 201.719,385.66 0,137.082" style="fill:none;stroke:#000;stroke-opacity:1;stroke-width:5.21232;stroke-linecap:butt;stroke-linejoin:miter;stroke-miterlimit:10;stroke-dasharray:none" id="path204"/><path d="m 251.047,361.832 64.039,0" style="fill:none;stroke:#000;stroke-opacity:1;stroke-width:5.21232;stroke-linecap:butt;stroke-linejoin:miter;stroke-miterlimit:10;stroke-dasharray:none" id="path206"/><path d="m 251.047,397.574 64.039,0" style="fill:none;stroke:#000;stroke-opacity:1;stroke-width:5.21232;stroke-linecap:butt;stroke-linejoin:miter;stroke-miterlimit:10;stroke-dasharray:none" id="path208"/><g id="g210" transform="scale(10,10)"><text id="text212" transform="matrix(1,0,0,-1,25.9984,39.7574)"><tspan style="fill:#000;fill-opacity:1;fill-rule:nonzero;stroke:none;font-family:Maestro;font-variant:normal;font-weight:400;font-size:14.3;writing-mode:lr;-inkscape-font-specification:Maestro" id="tspan214" x="0" y="0">œ</tspan></text></g><path d="m 302.984,403.531 0,110.211" style="fill:none;stroke:#000;stroke-opacity:1;stroke-width:5.21232;stroke-linecap:butt;stroke-linejoin:miter;stroke-miterlimit:10;stroke-dasharray:none" id="path216"/><g id="g218" transform="scale(10,10)"><text id="text220" transform="matrix(1,0,0,-1,35.9766,30.8223)"><tspan style="fill:#000;fill-opacity:1;fill-rule:nonzero;stroke:none;font-family:Maestro;font-variant:normal;font-weight:400;font-size:14.3;writing-mode:lr;-inkscape-font-specification:Maestro" id="tspan222" x="0" y="0">œ</tspan></text></g><path d="m 402.766,314.18 0,190.691" style="fill:none;stroke:#000;stroke-opacity:1;stroke-width:5.21232;stroke-linecap:butt;stroke-linejoin:miter;stroke-miterlimit:10;stroke-dasharray:none" id="path224"/><path d="m 199.109,531.68 0,-17.871 206.262,-17.871 0,17.871" style="fill:#000;fill-opacity:1;fill-rule:nonzero;stroke:none" id="path226"/><path d="m 512.969,296.309 0,83.394" style="fill:none;stroke:#000;stroke-opacity:1;stroke-width:5.21232;stroke-linecap:butt;stroke-linejoin:miter;stroke-miterlimit:10;stroke-dasharray:none" id="path228"/><g id="g230" transform="scale(10,10)"><text id="text232" transform="matrix(1,0,0,-1,46.9969,29.0352)"><tspan style="fill:#000;fill-opacity:1;fill-rule:nonzero;stroke:none;font-family:Maestro;font-variant:normal;font-weight:400;font-size:14.3;writing-mode:lr;-inkscape-font-specification:Maestro" id="tspan234" x="0 -4.617" y="0">œ#</tspan></text></g><path d="m 711.039,314.18 0,83.394" style="fill:none;stroke:#000;stroke-opacity:1;stroke-width:5.21232;stroke-linecap:butt;stroke-linejoin:miter;stroke-miterlimit:10;stroke-dasharray:none" id="path236"/><g id="g238" transform="scale(10,10)"><text id="text240" transform="matrix(1,0,0,-1,66.8039,30.8223)"><tspan style="fill:#000;fill-opacity:1;fill-rule:nonzero;stroke:none;font-family:Maestro;font-variant:normal;font-weight:400;font-size:14.3;writing-mode:lr;-inkscape-font-specification:Maestro" id="tspan242" x="0 -60.91" y="0">œœ</tspan></text></g><path d="m 61.543,302.266 0,-145.95" style="fill:none;stroke:#000;stroke-opacity:1;stroke-width:5.21232;stroke-linecap:butt;stroke-linejoin:miter;stroke-miterlimit:10;stroke-dasharray:none" id="path244"/><g id="g246" transform="scale(10,10)"><text id="text248" transform="matrix(1,0,0,-1,15.8715,29.0352)"><tspan style="fill:#000;fill-opacity:1;fill-rule:nonzero;stroke:none;font-family:Maestro;font-variant:normal;font-weight:400;font-size:14.3;writing-mode:lr;-inkscape-font-specification:Maestro" id="tspan250" x="0" y="0">œ</tspan></text></g><path d="m 161.32,284.395 0,-134.004" style="fill:none;stroke:#000;stroke-opacity:1;stroke-width:5.21232;stroke-linecap:butt;stroke-linejoin:miter;stroke-miterlimit:10;stroke-dasharray:none" id="path252"/><g id="g254" transform="scale(10,10)"><text id="text256" transform="matrix(1,0,0,-1,25.9984,27.248)"><tspan style="fill:#000;fill-opacity:1;fill-rule:nonzero;stroke:none;font-family:Maestro;font-variant:normal;font-weight:400;font-size:14.3;writing-mode:lr;-inkscape-font-specification:Maestro" id="tspan258" x="0" y="0">œ</tspan></text></g><path d="m 262.59,266.523 0,-122.148" style="fill:none;stroke:#000;stroke-opacity:1;stroke-width:5.21232;stroke-linecap:butt;stroke-linejoin:miter;stroke-miterlimit:10;stroke-dasharray:none" id="path260"/><g id="g262" transform="scale(10,10)"><text id="text264" transform="matrix(1,0,0,-1,35.9766,25.4609)"><tspan style="fill:#000;fill-opacity:1;fill-rule:nonzero;stroke:none;font-family:Maestro;font-variant:normal;font-weight:400;font-size:14.3;writing-mode:lr;-inkscape-font-specification:Maestro" id="tspan266" x="0" y="0">œ</tspan></text></g><path d="m 362.371,248.652 0,-110.207" style="fill:none;stroke:#000;stroke-opacity:1;stroke-width:5.21232;stroke-linecap:butt;stroke-linejoin:miter;stroke-miterlimit:10;stroke-dasharray:none" id="path268"/><path d="m 58.9336,165.254 0,-17.871 306.0434,-17.871 0,17.871" style="fill:#000;fill-opacity:1;fill-rule:nonzero;stroke:none" id="path270"/><g id="g272" transform="scale(10,10)"><text id="text274" transform="matrix(1,0,0,-1,46.9969,23.6738)"><tspan style="fill:#000;fill-opacity:1;fill-rule:nonzero;stroke:none;font-family:Maestro;font-variant:normal;font-weight:400;font-size:14.3;writing-mode:lr;-inkscape-font-specification:Maestro" id="tspan276" x="0" y="0">œ</tspan></text></g><path d="m 472.574,230.781 0,-145.949" style="fill:none;stroke:#000;stroke-opacity:1;stroke-width:5.21232;stroke-linecap:butt;stroke-linejoin:miter;stroke-miterlimit:10;stroke-dasharray:none" id="path278"/><g id="g280" transform="scale(10,10)"><text id="text282" transform="matrix(1,0,0,-1,56.8258,21.8867)"><tspan style="fill:#000;fill-opacity:1;fill-rule:nonzero;stroke:none;font-family:Maestro;font-variant:normal;font-weight:400;font-size:14.3;writing-mode:lr;-inkscape-font-specification:Maestro" id="tspan284" x="0" y="0">œ</tspan></text></g><path d="m 570.863,212.91 0,-134.0038" style="fill:none;stroke:#000;stroke-opacity:1;stroke-width:5.21232;stroke-linecap:butt;stroke-linejoin:miter;stroke-miterlimit:10;stroke-dasharray:none" id="path286"/><g id="g288" transform="scale(10,10)"><text id="text290" transform="matrix(1,0,0,-1,66.8039,20.0996)"><tspan style="fill:#000;fill-opacity:1;fill-rule:nonzero;stroke:none;font-family:Maestro;font-variant:normal;font-weight:400;font-size:14.3;writing-mode:lr;-inkscape-font-specification:Maestro" id="tspan292" x="0" y="0">œ</tspan></text></g><path d="m 670.645,195.039 0,-122.1484" style="fill:none;stroke:#000;stroke-opacity:1;stroke-width:5.21232;stroke-linecap:butt;stroke-linejoin:miter;stroke-miterlimit:10;stroke-dasharray:none" id="path294"/><g id="g296" transform="scale(10,10)"><text id="text298" transform="matrix(1,0,0,-1,76.6328,18.3125)"><tspan style="fill:#000;fill-opacity:1;fill-rule:nonzero;stroke:none;font-family:Maestro;font-variant:normal;font-weight:400;font-size:14.3;writing-mode:lr;-inkscape-font-specification:Maestro" id="tspan300" x="0" y="0">œ</tspan></text></g><path d="m 768.934,177.168 0,-110.2071" style="fill:none;stroke:#000;stroke-opacity:1;stroke-width:5.21232;stroke-linecap:butt;stroke-linejoin:miter;stroke-miterlimit:10;stroke-dasharray:none" id="path302"/><path d="m 469.969,93.7695 0,-17.8711 301.574,-17.8711 0,17.8711" style="fill:#000;fill-opacity:1;fill-rule:nonzero;stroke:none" id="path304"/><path d="m 954.977,671.598 0,119.14" style="fill:none;stroke:#000;stroke-opacity:1;stroke-width:5.21232;stroke-linecap:butt;stroke-linejoin:miter;stroke-miterlimit:10;stroke-dasharray:none" id="path306"/><g id="g308" transform="scale(10,10)"><text id="text310" transform="matrix(1,0,0,-1,91.0785,66.5641)"><tspan style="fill:#000;fill-opacity:1;fill-rule:nonzero;stroke:none;font-family:Maestro;font-variant:normal;font-weight:400;font-size:14.3;writing-mode:lr;-inkscape-font-specification:Maestro" id="tspan312" x="0" y="0">˙</tspan></text></g><path d="m 1482.17,653.727 0,119.14" style="fill:none;stroke:#000;stroke-opacity:1;stroke-width:5.21232;stroke-linecap:butt;stroke-linejoin:miter;stroke-miterlimit:10;stroke-dasharray:none" id="path314"/><g id="g316" transform="scale(10,10)"><text id="text318" transform="matrix(1,0,0,-1,143.798,64.777)"><tspan style="fill:#000;fill-opacity:1;fill-rule:nonzero;stroke:none;font-family:Maestro;font-variant:normal;font-weight:400;font-size:14.3;writing-mode:lr;-inkscape-font-specification:Maestro" id="tspan320" x="0" y="0">˙</tspan></text><text id="text322" transform="matrix(1,0,0,-1,142.01089,80.861)"><tspan style="fill:#000;fill-opacity:1;fill-rule:nonzero;stroke:none;font-family:Maestro;font-variant:normal;font-weight:400;font-size:13.11;writing-mode:lr;-inkscape-font-specification:Maestro" id="tspan324" x="0" y="0">U</tspan></text></g><path d="m 955.09,641.812 0,-119.14" style="fill:none;stroke:#000;stroke-opacity:1;stroke-width:5.21232;stroke-linecap:butt;stroke-linejoin:miter;stroke-miterlimit:10;stroke-dasharray:none" id="path326"/><g id="g328" transform="scale(10,10)"><text id="text330" transform="matrix(1,0,0,-1,95.2484,64.777)"><tspan style="fill:#000;fill-opacity:1;fill-rule:nonzero;stroke:none;font-family:Maestro;font-variant:normal;font-weight:400;font-size:14.3;writing-mode:lr;-inkscape-font-specification:Maestro" id="tspan332" x="0" y="0">œ</tspan><tspan style="fill:#000;fill-opacity:1;fill-rule:nonzero;stroke:none;font-family:Maestro;font-variant:normal;font-weight:400;font-size:14.3;writing-mode:lr;-inkscape-font-specification:Maestro" id="tspan334" x="0" y="3.574">œ</tspan></text></g><path d="m 1166.57,623.941 0,-119.14" style="fill:none;stroke:#000;stroke-opacity:1;stroke-width:5.21232;stroke-linecap:butt;stroke-linejoin:miter;stroke-miterlimit:10;stroke-dasharray:none" id="path336"/><g id="g338" transform="scale(10,10)"><text id="text340" transform="matrix(1,0,0,-1,116.396,62.9898)"><tspan style="fill:#000;fill-opacity:1;fill-rule:nonzero;stroke:none;font-family:Maestro;font-variant:normal;font-weight:400;font-size:14.3;writing-mode:lr;-inkscape-font-specification:Maestro" id="tspan342" x="0" y="0">œ</tspan><tspan style="fill:#000;fill-opacity:1;fill-rule:nonzero;stroke:none;font-family:Maestro;font-variant:normal;font-weight:400;font-size:14.3;writing-mode:lr;-inkscape-font-specification:Maestro" id="tspan344" x="0" y="3.574">œ</tspan><tspan style="fill:#000;fill-opacity:1;fill-rule:nonzero;stroke:none;font-family:Maestro;font-variant:normal;font-weight:400;font-size:14.3;writing-mode:lr;-inkscape-font-specification:Maestro" id="tspan346" x="-4.616" y="0">#</tspan></text></g><path d="m 1440.59,588.199 0,-83.398" style="fill:none;stroke:#000;stroke-opacity:1;stroke-width:5.21232;stroke-linecap:butt;stroke-linejoin:miter;stroke-miterlimit:10;stroke-dasharray:none" id="path348"/><g id="g350" transform="scale(10,10)"><text id="text352" transform="matrix(1,0,0,-1,143.798,59.4156)"><tspan style="fill:#000;fill-opacity:1;fill-rule:nonzero;stroke:none;font-family:Maestro;font-variant:normal;font-weight:400;font-size:14.3;writing-mode:lr;-inkscape-font-specification:Maestro" id="tspan354" x="0" y="0">˙</tspan><tspan style="fill:#000;fill-opacity:1;fill-rule:nonzero;stroke:none;font-family:Maestro;font-variant:normal;font-weight:400;font-size:14.3;writing-mode:lr;-inkscape-font-specification:Maestro" id="tspan356" x="-52.719" y="23.232">‰</tspan><tspan style="fill:#000;fill-opacity:1;fill-rule:nonzero;stroke:none;font-family:Maestro;font-variant:normal;font-weight:400;font-size:14.3;writing-mode:lr;-inkscape-font-specification:Maestro" id="tspan358" x="-42.89" y="26.806">œ</tspan></text></g><path d="m 1052.08,332.051 0,110.203" style="fill:none;stroke:#000;stroke-opacity:1;stroke-width:5.21232;stroke-linecap:butt;stroke-linejoin:miter;stroke-miterlimit:10;stroke-dasharray:none" id="path360"/><g id="g362" transform="scale(10,10)"><text id="text364" transform="matrix(1,0,0,-1,108.205,34.3965)"><tspan style="fill:#000;fill-opacity:1;fill-rule:nonzero;stroke:none;font-family:Maestro;font-variant:normal;font-weight:400;font-size:14.3;writing-mode:lr;-inkscape-font-specification:Maestro" id="tspan366" x="0" y="0">œ</tspan></text></g><path d="m 1125.05,349.922 0,110.203" style="fill:none;stroke:#000;stroke-opacity:1;stroke-width:5.21232;stroke-linecap:butt;stroke-linejoin:miter;stroke-miterlimit:10;stroke-dasharray:none" id="path368"/><path d="m 1049.47,451.188 0,-17.872 78.19,17.872 0,17.871" style="fill:#000;fill-opacity:1;fill-rule:nonzero;stroke:none" id="path370"/><path d="m 1049.47,424.383 0,-17.871 78.19,17.871 0,17.871" style="fill:#000;fill-opacity:1;fill-rule:nonzero;stroke:none" id="path372"/><path d="m 1155.02,361.832 64.04,0" style="fill:none;stroke:#000;stroke-opacity:1;stroke-width:5.21232;stroke-linecap:butt;stroke-linejoin:miter;stroke-miterlimit:10;stroke-dasharray:none" id="path374"/><g id="g376" transform="scale(10,10)"><text id="text378" transform="matrix(1,0,0,-1,116.396,36.1832)"><tspan style="fill:#000;fill-opacity:1;fill-rule:nonzero;stroke:none;font-family:Maestro;font-variant:normal;font-weight:400;font-size:14.3;writing-mode:lr;-inkscape-font-specification:Maestro" id="tspan380" x="0" y="0">œ</tspan></text></g><path d="m 1206.96,367.789 0,110.207" style="fill:none;stroke:#000;stroke-opacity:1;stroke-width:5.21232;stroke-linecap:butt;stroke-linejoin:miter;stroke-miterlimit:10;stroke-dasharray:none" id="path382"/><g id="g384" transform="scale(10,10)"><text id="text386" transform="matrix(1,0,0,-1,126.225,34.3965)"><tspan style="fill:#000;fill-opacity:1;fill-rule:nonzero;stroke:none;font-family:Maestro;font-variant:normal;font-weight:400;font-size:14.3;writing-mode:lr;-inkscape-font-specification:Maestro" id="tspan388" x="0" y="0">œ</tspan></text></g><path d="m 1305.25,349.922 0,117.726" style="fill:none;stroke:#000;stroke-opacity:1;stroke-width:5.21232;stroke-linecap:butt;stroke-linejoin:miter;stroke-miterlimit:10;stroke-dasharray:none" id="path390"/><g id="g392" transform="scale(10,10)"><text id="text394" transform="matrix(1,0,0,-1,133.373,32.6094)"><tspan style="fill:#000;fill-opacity:1;fill-rule:nonzero;stroke:none;font-family:Maestro;font-variant:normal;font-weight:400;font-size:14.3;writing-mode:lr;-inkscape-font-specification:Maestro" id="tspan396" x="0" y="0">œ</tspan></text></g><path d="m 1376.73,332.051 0,128.074" style="fill:none;stroke:#000;stroke-opacity:1;stroke-width:5.21232;stroke-linecap:butt;stroke-linejoin:miter;stroke-miterlimit:10;stroke-dasharray:none" id="path398"/><path d="m 1204.36,486.93 0,-17.871 174.98,-17.871 0,17.871" style="fill:#000;fill-opacity:1;fill-rule:nonzero;stroke:none" id="path400"/><path d="m 1302.64,449.777 0,-17.871 76.7,-7.523 0,17.871" style="fill:#000;fill-opacity:1;fill-rule:nonzero;stroke:none" id="path402"/><path d="m 1482.17,349.922 0,83.394" style="fill:none;stroke:#000;stroke-opacity:1;stroke-width:5.21232;stroke-linecap:butt;stroke-linejoin:miter;stroke-miterlimit:10;stroke-dasharray:none" id="path404"/><g id="g406" transform="scale(10,10)"><text id="text408" transform="matrix(1,0,0,-1,143.798,34.3965)"><tspan style="fill:#000;fill-opacity:1;fill-rule:nonzero;stroke:none;font-family:Maestro;font-variant:normal;font-weight:400;font-size:14.3;writing-mode:lr;-inkscape-font-specification:Maestro" id="tspan410" x="0 -4.021" y="0">˙n</tspan></text><text id="text412" transform="matrix(1,0,0,-1,142.01089,8.4832)"><tspan style="fill:#000;fill-opacity:1;fill-rule:nonzero;stroke:none;font-family:Maestro;font-variant:normal;font-weight:400;font-size:13.11;writing-mode:lr;-inkscape-font-specification:Maestro" id="tspan414" x="0" y="0">u</tspan></text><text id="text416" transform="matrix(1,0,0,-1,91.07849,23.6738)"><tspan style="fill:#000;fill-opacity:1;fill-rule:nonzero;stroke:none;font-family:Maestro;font-variant:normal;font-weight:400;font-size:14.3;writing-mode:lr;-inkscape-font-specification:Maestro" id="tspan418" x="0" y="0">œ</tspan></text></g><path d="m 913.391,230.781 0,-217.4333" style="fill:none;stroke:#000;stroke-opacity:1;stroke-width:5.21232;stroke-linecap:butt;stroke-linejoin:miter;stroke-miterlimit:10;stroke-dasharray:none" id="path420"/><g id="g422" transform="scale(10,10)"><text id="text424" transform="matrix(1,0,0,-1,100.908,20.0996)"><tspan style="fill:#000;fill-opacity:1;fill-rule:nonzero;stroke:none;font-family:Maestro;font-variant:normal;font-weight:400;font-size:14.3;writing-mode:lr;-inkscape-font-specification:Maestro" id="tspan426" x="0" y="0">œ</tspan></text></g><path d="m 1011.68,195.039 0,-181.6913" style="fill:none;stroke:#000;stroke-opacity:1;stroke-width:5.21232;stroke-linecap:butt;stroke-linejoin:miter;stroke-miterlimit:10;stroke-dasharray:none" id="path428"/><g id="g430" transform="scale(10,10)"><text id="text432" transform="matrix(1,0,0,-1,116.396,25.4609)"><tspan style="fill:#000;fill-opacity:1;fill-rule:nonzero;stroke:none;font-family:Maestro;font-variant:normal;font-weight:400;font-size:14.3;writing-mode:lr;-inkscape-font-specification:Maestro" id="tspan434" x="0" y="0">œ</tspan></text></g><path d="m 1166.57,248.652 0,-235.3043" style="fill:none;stroke:#000;stroke-opacity:1;stroke-width:5.21232;stroke-linecap:butt;stroke-linejoin:miter;stroke-miterlimit:10;stroke-dasharray:none" id="path436"/><path d="m 1253.31,147.383 64.04,0" style="fill:none;stroke:#000;stroke-opacity:1;stroke-width:5.21232;stroke-linecap:butt;stroke-linejoin:miter;stroke-miterlimit:10;stroke-dasharray:none" id="path438"/><g id="g440" transform="scale(10,10)"><text id="text442" transform="matrix(1,0,0,-1,126.225,12.9512)"><tspan style="fill:#000;fill-opacity:1;fill-rule:nonzero;stroke:none;font-family:Maestro;font-variant:normal;font-weight:400;font-size:14.3;writing-mode:lr;-inkscape-font-specification:Maestro" id="tspan444" x="0" y="0">œ</tspan></text></g><path d="m 1264.86,123.555 0,-110.2073" style="fill:none;stroke:#000;stroke-opacity:1;stroke-width:5.21232;stroke-linecap:butt;stroke-linejoin:miter;stroke-miterlimit:10;stroke-dasharray:none" id="path446"/><path d="m 910.785,4.41406 356.676,0 0,17.8711 -356.676,0 0,-17.8711 z" style="fill:#000;fill-opacity:1;fill-rule:nonzero;stroke:none" id="path448"/><path d="m 1440.59,177.168 0,-83.3985" style="fill:none;stroke:#000;stroke-opacity:1;stroke-width:5.21232;stroke-linecap:butt;stroke-linejoin:miter;stroke-miterlimit:10;stroke-dasharray:none" id="path450"/><g id="g452" transform="scale(10,10)"><text id="text454" transform="matrix(1,0,0,-1,143.798,18.3125)"><tspan style="fill:#000;fill-opacity:1;fill-rule:nonzero;stroke:none;font-family:Maestro;font-variant:normal;font-weight:400;font-size:14.3;writing-mode:lr;-inkscape-font-specification:Maestro" id="tspan456" x="0" y="0">˙</tspan></text></g><path d="m -216.574,819.035 c 58.078,31.274 229.3435,31.274 287.4217,0 l -0.7032,-1.312 c -57.375,23.648 -228.6405,23.648 -286.0155,0 l -0.703,1.312" style="fill:#000;fill-opacity:1;fill-rule:nonzero;stroke:none" id="path458"/></g></g></g><path style="fill:none;stroke:#c80000;stroke-width:2;stroke-linecap:round;stroke-linejoin:round;stroke-miterlimit:4;stroke-opacity:1;stroke-dasharray:none" id="path3264" d="m 103.86653,28.416313 a 7.8389831,8.8188562 0 1 1 -15.677971,0 7.8389831,8.8188562 0 1 1 15.677971,0 z" transform="matrix(0.8,0,0,-0.8,1.9597458,92.108051)"/></g></svg>