<svg xmlns="http://www.w3.org/2000/svg" xmlns:svg="http://www.w3.org/2000/svg" id="svg8302" width="730" height="268" version="1.0"><metadata id="metadata8307"/><g id="layer1"><rect style="fill:#afc6e9;stroke:none" id="rect8370" width="23.5" height="22.5" x="218" y="168"/><rect style="fill:#ff8080;stroke:none" id="rect8368" width="14.5" height="22" x="201" y="168"/><rect style="fill:#87de87;stroke:none" id="rect8360" width="26" height="22.5" x="173" y="167.5"/><rect style="fill:#afc6e9;stroke:none" id="rect8366" width="21.5" height="20.5" x="218.5" y="138"/><rect style="fill:#ff8080;stroke:none" id="rect8364" width="16" height="20.5" x="200.5" y="138"/><rect style="fill:#87de87;stroke:none" id="rect8362" width="28.5" height="25.5" x="145" y="135.5"/><rect style="fill:#87de87;stroke:none" id="rect8358" width="28" height="22.5" x="86" y="168"/><rect style="fill:#ff8080;stroke:none" id="rect8356" width="18" height="24.5" x="53.5" y="166"/><rect style="fill:#ff8080;stroke:none" id="rect8354" width="18.5" height="23.5" x="53" y="136"/><rect style="fill:#afc6e9;stroke:none" id="rect8352" width="14" height="27" x="175.5" y="105"/><rect style="fill:#ff8080;stroke:none" id="rect8350" width="17" height="26" x="156" y="105.5"/><rect style="fill:#87de87;stroke:none" id="rect8348" width="30" height="25" x="86" y="108"/><rect style="fill:#ff8080;stroke:none" id="rect8346" width="20" height="25" x="51.5" y="106"/><rect style="fill:#afc6e9;stroke:none" id="rect8344" width="18" height="29" x="73" y="75"/><text xml:space="preserve" style="font-size:24px;font-style:normal;font-variant:normal;font-weight:700;font-stretch:normal;fill:#000;fill-opacity:1;stroke:none;font-family:DejaVu Sans Mono;-inkscape-font-specification:DejaVu Sans Mono Bold" id="text8316" x="28" y="36"><tspan id="tspan8318" x="28" y="36">\relative c&apos;&apos; {</tspan><tspan id="tspan8320" x="28" y="66"> \key c \minor</tspan><tspan id="tspan8322" x="28" y="96"> g(</tspan><tspan id="tspan8324" x="28" y="126"> &lt;ees c&apos;&gt;)</tspan><tspan id="tspan8326" x="28" y="156"> &lt;d f gis b&gt;-.</tspan><tspan id="tspan8328" x="28" y="186"> &lt;ees g bes&gt;-.</tspan><tspan id="tspan8330" x="28" y="216">}</tspan></text><text xml:space="preserve" style="font-size:22px;font-style:normal;font-variant:normal;font-weight:400;font-stretch:normal;text-align:start;line-height:125%;writing-mode:lr-tb;text-anchor:start;fill:#04a;fill-opacity:1;stroke:none;font-family:DejaVu Serif;-inkscape-font-specification:DejaVu Serif" id="text8332" x="299" y="38"><tspan id="tspan2847" x="299" y="38">Aggiungi articolazioni</tspan></text><text xml:space="preserve" style="font-size:22px;font-style:normal;font-variant:normal;font-weight:400;font-stretch:normal;text-align:start;line-height:125%;writing-mode:lr-tb;text-anchor:start;fill:#217821;fill-opacity:1;stroke:none;font-family:DejaVu Serif;-inkscape-font-specification:DejaVu Serif" id="text8336" x="250" y="140"><tspan id="tspan2870" x="250" y="140">Aggiungi -es per il bemolle, -is per il diesis</tspan></text><text xml:space="preserve" style="font-size:22px;font-style:normal;font-variant:normal;font-weight:400;font-stretch:normal;text-align:start;line-height:125%;writing-mode:lr;text-anchor:start;fill:#c83737;fill-opacity:1;stroke:none;font-family:DejaVu Serif;-inkscape-font-specification:DejaVu Serif" id="text8340" x="114" y="253"><tspan id="tspan2848">Racchiudi le note tra &lt; &gt; per formare gli accordi</tspan></text><path style="fill:none;stroke:#04a;stroke-width:1.79999995;stroke-linecap:butt;stroke-linejoin:miter;stroke-miterlimit:4;stroke-opacity:1;stroke-dasharray:none" id="path8372" d="M 342.49094,46.616703 C 291.87214,101.82991 162.63456,72.131421 101.11627,89.809091"/><path style="fill:none;stroke:#04a;stroke-width:1.79999995;stroke-linecap:butt;stroke-linejoin:miter;stroke-miterlimit:4;stroke-opacity:1;stroke-dasharray:none" id="path8374" d="M 371.50314,45.637518 C 372.91735,75.336 240.84271,89.67052 226.3158,133.37763"/><path style="fill:none;stroke:#217821;stroke-width:1.79999995;stroke-linecap:butt;stroke-linejoin:miter;stroke-miterlimit:4;stroke-opacity:1;stroke-dasharray:none" id="path8376" d="M 307.54982,148.21825 C 307.69701,196.64466 189.3833,236.168 187.3833,195.168"/><path style="fill:none;stroke:#217821;stroke-width:1.79999995;stroke-linecap:butt;stroke-linejoin:miter;stroke-miterlimit:4;stroke-opacity:1;stroke-dasharray:none" id="path8378" d="M 409.49957,149.23907 C 380.04015,239.51472 84.53048,227.50252 99.702056,197.28932"/><path style="fill:none;stroke:#c83737;stroke-width:1.79999995;stroke-linecap:butt;stroke-linejoin:miter;stroke-miterlimit:4;stroke-opacity:1;stroke-dasharray:none" id="path8380" d="M 107.48023,246.07969 C 58.689862,262.34315 41.012194,228.40202 62.225397,197.99643"/></g></svg>