<svg xmlns="http://www.w3.org/2000/svg" xmlns:svg="http://www.w3.org/2000/svg" id="svg8911" width="620" height="269" version="1.0"><metadata id="metadata8916"/><g id="layer1"><rect style="fill:#afc6e9;stroke:none" id="rect8967" width="14.162" height="24.162" x="258.419" y="128.919"/><rect style="fill:#87de87;stroke:none" id="rect8965" width="14.562" height="24.062" x="242.969" y="128.969"/><rect style="fill:#87de87;stroke:none" id="rect8963" width="15.586" height="24.086" x="214.457" y="128.957"/><rect style="fill:#87de87;stroke:none" id="rect8961" width="17" height="24" x="185" y="129"/><rect style="fill:#87de87;stroke:none" id="rect8959" width="18.983" height="24.483" x="154.009" y="129.009"/><rect style="fill:#87de87;stroke:none" id="rect8957" width="18.909" height="24.409" x="125.046" y="129.046"/><rect style="fill:#87de87;stroke:none" id="rect8955" width="12.837" height="23.337" x="100.081" y="129.081"/><rect style="fill:#afc6e9;stroke:none" id="rect8953" width="16.723" height="23.723" x="70.888" y="128.888"/><rect style="fill:#87de87;stroke:none" id="rect8951" width="13.634" height="24.134" x="55.433" y="128.933"/><rect style="fill:#ff8080;stroke:none" id="rect8949" width="80" height="56" x="53" y="67"/><text xml:space="preserve" style="font-size:24px;font-style:normal;font-variant:normal;font-weight:700;font-stretch:normal;fill:#000;fill-opacity:1;stroke:none;font-family:DejaVu Sans Mono;-inkscape-font-specification:DejaVu Sans Mono Bold" id="text8921" x="27" y="58"><tspan id="tspan8925" x="27" y="58">{</tspan><tspan id="tspan8929" x="27" y="88"> \time 2/4</tspan><tspan id="tspan8931" x="27" y="118"> \clef bass</tspan><tspan id="tspan8933" x="27" y="148"> c4 c g g a a g2</tspan><tspan id="tspan8935" x="27" y="178">}</tspan></text><text xml:space="preserve" style="font-size:22px;font-style:normal;font-variant:normal;font-weight:400;font-stretch:normal;fill:#c83737;fill-opacity:1;stroke:none;font-family:DejaVu Serif;-inkscape-font-specification:DejaVu Serif" id="text8937" x="294" y="44"><tspan id="tspan8939" x="294" y="44">A parancsok \ karakterrel kezdődnek</tspan></text><text xml:space="preserve" style="font-size:22px;font-style:normal;font-variant:normal;font-weight:400;font-stretch:normal;fill:#217821;fill-opacity:1;stroke:none;font-family:DejaVu Serif;-inkscape-font-specification:DejaVu Serif" id="text8941" x="293" y="86"><tspan id="tspan8943" x="293" y="86">A betűk hangokat jelölnek</tspan></text><text xml:space="preserve" style="font-size:22px;font-style:normal;font-variant:normal;font-weight:400;font-stretch:normal;fill:#04a;fill-opacity:1;stroke:none;font-family:DejaVu Serif;-inkscape-font-specification:DejaVu Serif" id="text8945" x="180" y="230"><tspan id="tspan8947" x="180" y="230">A számok jelzik a ritmusértéket</tspan></text><path style="fill:none;stroke:#c83737;stroke-width:1.79999995;stroke-linecap:butt;stroke-linejoin:miter;stroke-miterlimit:4;stroke-opacity:1;stroke-dasharray:none" id="path8969" d="M 289,36 C 223,32.5 101.5,27.5 92,64"/><path style="fill:none;stroke:#217821;stroke-width:1.79999995;stroke-linecap:butt;stroke-linejoin:miter;stroke-miterlimit:4;stroke-opacity:1;stroke-dasharray:none" id="path8971" d="m 289,78 c -63.5,-8.5 -68.5,47 -68.5,47"/><path style="fill:none;stroke:#04a;stroke-width:1.79999995;stroke-linecap:butt;stroke-linejoin:miter;stroke-miterlimit:4;stroke-opacity:1;stroke-dasharray:none" id="path8973" d="M 176,222.5 C 98.5,225.5 57,208 77.5,156"/><path style="fill:none;stroke:#04a;stroke-width:1.79999995;stroke-linecap:butt;stroke-linejoin:miter;stroke-miterlimit:4;stroke-opacity:1;stroke-dasharray:none" id="path8975" d="m 350,209 c 13.5,-25 -82.5,2.5 -84.5,-53"/></g></svg>